<svg width="190" height="168" viewBox="0 0 190 168" fill="none" xmlns="http://www.w3.org/2000/svg">
<path d="M73.4691 42.5C53.2651 42.5 36.7345 60 36.7345 81.5625C36.7345 103.125 53.2651 120.625 73.4691 120.625C93.6731 120.625 110.204 103.125 110.204 81.5625C110.204 60 93.6731 42.5 73.4691 42.5ZM39.2543 124.26C36.4771 122.07 33.0654 120.606 29.5787 121.198C12.7521 124.053 0 136.624 0 151.875V154.5C0 161.68 5.81785 167.5 12.9945 167.5H133.944C141.12 167.5 146.938 161.68 146.938 154.5V151.875C146.938 136.61 134.313 124.03 117.357 121.19C113.871 120.606 110.462 122.069 107.686 124.258C98.28 131.677 86.357 136.25 73.4691 136.25C60.5822 136.25 48.66 131.678 39.2543 124.26Z" fill="black"/>
<path d="M152.976 0.5C147.864 0.5 143.719 4.64584 143.719 9.76V14.53C143.719 21.7097 137.902 27.53 130.725 27.53H124.957C119.983 27.53 115.951 31.5639 115.951 36.54C115.951 41.5161 119.983 45.55 124.957 45.55H130.725C137.902 45.55 143.719 51.3703 143.719 58.55V63.32C143.719 68.4342 147.864 72.58 152.976 72.58C158.088 72.58 162.232 68.4342 162.232 63.32V58.55C162.232 51.3703 168.05 45.55 175.226 45.55H180.994C185.968 45.55 190 41.5161 190 36.54C190 31.5639 185.968 27.53 180.994 27.53H175.226C168.05 27.53 162.232 21.7097 162.232 14.53V9.75999C162.232 4.64583 158.088 0.5 152.976 0.5Z" fill="black"/>
</svg>
