<svg width="150" height="167" viewBox="0 0 150 167" fill="none" xmlns="http://www.w3.org/2000/svg">
<path d="M13 0C5.82029 0 0 5.8203 0 13V154C0 161.18 5.8203 167 13 167H137C144.18 167 150 161.18 150 154V96.5C150 89.3203 144.18 83.5 137 83.5H77.2857C70.106 83.5 64.2857 77.6797 64.2857 70.5V13C64.2857 5.8203 58.4654 0 51.2857 0H13ZM107.786 21.5012C99.5482 13.4766 85.7143 19.3131 85.7143 30.813V49.625C85.7143 56.8047 91.5346 62.625 98.7143 62.625H118.025C129.689 62.625 135.451 48.4522 127.096 40.3131L107.786 21.5012ZM21.4286 52.1875C21.4286 46.423 26.1016 41.75 31.8661 41.75H32.4196C38.1841 41.75 42.8571 46.423 42.8571 52.1875C42.8571 57.952 38.1841 62.625 32.4196 62.625H31.8661C26.1016 62.625 21.4286 57.952 21.4286 52.1875ZM21.4286 93.9375C21.4286 88.173 26.1016 83.5 31.8661 83.5H32.4196C38.1841 83.5 42.8571 88.173 42.8571 93.9375C42.8571 99.702 38.1841 104.375 32.4196 104.375H31.8661C26.1016 104.375 21.4286 99.702 21.4286 93.9375ZM21.4286 135.688C21.4286 129.923 26.1016 125.25 31.8661 125.25H96.7054C102.47 125.25 107.143 129.923 107.143 135.688C107.143 141.452 102.47 146.125 96.7054 146.125H31.8661C26.1016 146.125 21.4286 141.452 21.4286 135.688Z" fill="black"/>
</svg>
